<svg xmlns="http://www.w3.org/2000/svg" viewBox="0 0 24 24" fill="currentColor">
  <path d="M22.282 9.821a5.985 5.985 0 0 0-.516-4.91 6.046 6.046 0 0 0-6.51-2.9A6.065 6.065 0 0 0 4.981 4.18a5.985 5.985 0 0 0-3.998 2.9 6.046 6.046 0 0 0 .743 7.097 5.98 5.98 0 0 0 .51 4.911 6.051 6.051 0 0 0 6.515 2.9A5.985 5.985 0 0 0 13.26 24a6.056 6.056 0 0 0 5.772-4.206 5.99 5.99 0 0 0 3.997-2.9 6.056 6.056 0 0 0-.747-7.073zM13.26 22.43a4.476 4.476 0 0 1-2.876-1.04l.141-.081 4.779-2.758a.795.795 0 0 0 .392-.681v-6.737l2.02 1.168a.071.071 0 0 1 .038.052v5.583a4.504 4.504 0 0 1-4.494 4.494zM3.6 18.304a4.47 4.47 0 0 1-.535-3.014l.142.085 4.783 2.759a.78.78 0 0 0 .78 0l5.843-3.369v2.332a.074.074 0 0 1-.028.057l-4.832 2.795a4.504 4.504 0 0 1-6.153-1.645zm-.617-8.908a4.476 4.476 0 0 1 2.34-2.097v.076l-.004 5.517a.787.787 0 0 0 .391.681l5.843 3.369-2.02 1.168a.069.069 0 0 1-.067.004l-4.837-2.789a4.504 4.504 0 0 1-1.646-5.929zm16.556 3.009a4.47 4.47 0 0 1-1.82 2.43v-.076l.004-5.517a.787.787 0 0 0-.391-.681L11.49 5.192l2.02-1.168a.069.069 0 0 1 .067-.004l4.837 2.789a4.504 4.504 0 0 1 1.125 6.606zM8.322 14.74l-2.02-1.168a.072.072 0 0 1-.038-.057V7.932a4.504 4.504 0 0 1 7.37-3.454l-.142.085-4.779 2.758a.795.795 0 0 0-.391.681v6.738zm1.56-3.693v-3.374l2.92 1.687-2.92 1.687zm0 7.05v-3.375l2.92 1.688-2.92 1.687z"/>
</svg>